PathFileType	4	(X/Y/Z)	C:/Users/opensim2020/Desktop/walking_exp_matlab/subject02_walking14_straight_01.trc	
DataRate	CameraRate	NumFrames	NumMarkers	Units	OrigDataRate	OrigDataStartFrame	OrigNumFrames	
100.00	100.00	4	41	mm	100.00	406	131	
Frame#	Time	LFHD			RFHD			LBHD			RBHD			C7			T10			CLAV			STRN			RBAK			LSHO			LUPA			LELB			LFRM			LWRA			LWRB			LFIN			RSHO			RUPA			RELB			RFRM			RWRA			RWRB			RFIN			LASI			RASI			LPSI			RPSI			LTHI			LKNE			LTIB			LANK			LHEE			LTOE			RTHI			RKNE			RTIB			RANK			RHEE			RTOE			*39			*40			
		X1	Y1	Z1	X2	Y2	Z2	X3	Y3	Z3	X4	Y4	Z4	X5	Y5	Z5	X6	Y6	Z6	X7	Y7	Z7	X8	Y8	Z8	X9	Y9	Z9	X10	Y10	Z10	X11	Y11	Z11	X12	Y12	Z12	X13	Y13	Z13	X14	Y14	Z14	X15	Y15	Z15	X16	Y16	Z16	X17	Y17	Z17	X18	Y18	Z18	X19	Y19	Z19	X20	Y20	Z20	X21	Y21	Z21	X22	Y22	Z22	X23	Y23	Z23	X24	Y24	Z24	X25	Y25	Z25	X26	Y26	Z26	X27	Y27	Z27	X28	Y28	Z28	X29	Y29	Z29	X30	Y30	Z30	X31	Y31	Z31	X32	Y32	Z32	X33	Y33	Z33	X34	Y34	Z34	X35	Y35	Z35	X36	Y36	Z36	X37	Y37	Z37	X38	Y38	Z38	X39	Y39	Z39	X40	Y40	Z40	X41	Y41	Z41	

66	0.650	1407.00977	-56.32365	1714.44897	1551.01147	-59.78152	1701.88098	1398.56567	-185.27782	1636.42480	1540.95203	-200.97585	1622.12659	1478.43286	-239.85579	1497.66943	1495.02209	-290.36230	1223.39465	1466.42249	-99.58764	1431.16516	1487.15552	-46.32508	1260.85522	1554.29272	-296.15546	1328.20996	1298.41553	-176.87976	1461.35339	1234.01147	-247.30284	1269.35376	1236.86707	-293.40585	1139.20667	1222.71130	-344.76791	1021.44891	1248.61926	-354.53647	880.12976	1216.38672	-394.22809	907.85895	1217.48926	-415.35092	843.05823	1660.44092	-161.76433	1478.99268	1771.76306	-158.41740	1304.40234	1816.79700	-103.09789	1170.83020	1828.27173	-10.09938	1090.78125	1798.91418	100.43529	1020.58502	1834.28015	69.93503	988.33575	1834.89648	138.37671	968.40753	1378.09363	-50.90812	967.28223	1637.05505	-80.78914	947.51288	1435.20081	-268.71408	1004.88208	1545.91003	-283.87402	1005.52490	1304.19141	-29.33536	671.03320	1337.45325	15.89791	476.99844	1333.26648	32.21338	283.30118	1359.42041	119.68687	75.57959	1412.30505	98.30725	36.50695	1347.43555	273.89395	92.26682	1689.37024	-241.42636	662.08887	1653.73157	-304.13333	461.04849	1658.70959	-416.37054	308.35452	1627.07617	-505.76361	134.10464	1571.60388	-554.68677	93.60473	1644.14221	-378.77560	35.13437	1491.79370	-161.57011	1781.03442	-3360.51953	2845.39453	1034.18457 
67	0.660	1405.21216	-43.17226	1713.55066	1549.18213	-46.75061	1700.82800	1396.52271	-172.13324	1635.67334	1538.59021	-188.12445	1621.09241	1475.90405	-226.94624	1496.64111	1492.50037	-275.96997	1221.75134	1464.18994	-86.13377	1430.65002	1484.88110	-32.01554	1260.66687	1551.95520	-282.50095	1326.93750	1296.08826	-163.17043	1460.93091	1232.16980	-234.16415	1268.82825	1236.41016	-280.59775	1139.15271	1222.42493	-333.35718	1022.52863	1248.63062	-346.08527	881.08209	1216.06604	-385.02731	909.70966	1217.96021	-408.79007	845.61536	1657.81543	-149.27251	1478.28015	1769.35754	-146.34865	1303.89844	1815.24939	-90.77511	1170.83667	1825.86572	3.07111	1091.73291	1796.59558	114.72415	1023.74268	1831.68628	84.90546	990.68634	1832.50842	153.73029	972.32013	1376.62476	-34.19533	967.99744	1635.54041	-64.68095	947.38647	1432.42737	-252.36360	1003.68640	1542.78259	-267.80539	1004.41174	1303.79968	-9.38577	671.70282	1336.43884	32.62185	476.14862	1331.99292	42.85116	281.58398	1358.98828	123.19286	71.35590	1411.23083	100.39877	32.70044	1348.81213	277.57498	84.44548	1689.12646	-226.32378	662.61053	1655.03540	-290.05768	461.66296	1659.81897	-406.62903	312.11118	1628.67651	-500.89890	140.49542	1572.74841	-550.65112	102.25029	1644.84705	-378.11078	35.16397	1489.79456	-148.58304	1780.06384	-3357.37500	2846.11499	1034.25354 
68	0.670	1403.32324	-30.09606	1712.59338	1547.29822	-33.83270	1699.66333	1394.47961	-159.12003	1634.86243	1536.50623	-175.30836	1620.27515	1473.24915	-213.97430	1495.41956	1489.73071	-261.38977	1219.92419	1461.80225	-72.69252	1430.16846	1482.44153	-17.47478	1260.57983	1549.37219	-269.14563	1325.43713	1293.77808	-149.43854	1460.57166	1230.39880	-220.46933	1268.47449	1235.61560	-267.55490	1139.20251	1221.75879	-321.50623	1023.19708	1248.10718	-336.51468	881.96924	1215.51733	-374.49652	911.11981	1218.52454	-400.27731	847.57275	1655.09277	-136.99724	1477.51172	1766.93433	-134.11943	1303.50647	1813.31445	-78.97475	1170.71313	1823.58508	15.98699	1092.73792	1794.19604	128.66483	1026.54138	1828.96936	99.18977	992.77460	1830.08618	168.52620	975.95630	1374.66724	-17.02053	968.86774	1633.51697	-47.98933	947.45410	1429.54431	-235.75836	1002.39661	1539.60095	-251.19489	1003.29279	1303.34875	10.30284	671.86438	1335.17627	48.23986	474.67044	1331.16370	52.25989	279.59558	1359.74939	126.68375	67.41721	1411.97229	102.45213	32.24085	1349.60254	281.95325	74.73897	1688.19360	-210.77690	662.79688	1656.67505	-275.24921	462.31287	1660.80286	-396.02081	315.89441	1630.19397	-495.31961	147.21440	1573.78235	-545.44977	111.37177	1645.59070	-377.34924	35.18849	1487.90955	-135.49675	1779.12231	-3357.24365	2845.91724	1034.21570 
69	0.680	1401.22229	-16.99304	1711.91882	1545.38342	-20.88294	1698.72937	1392.41138	-146.11449	1634.17590	1534.27478	-162.33806	1619.20972	1470.57019	-201.10297	1494.17249	1486.60925	-246.78796	1218.13171	1459.28577	-59.10887	1429.76453	1479.85059	-2.85362	1260.77734	1546.05444	-255.28009	1323.60730	1291.32422	-135.62357	1460.32507	1228.10718	-206.86728	1268.07629	1234.43237	-254.24390	1139.19226	1220.88342	-308.85767	1023.70184	1247.91614	-325.44684	882.35974	1214.91101	-362.59140	911.99524	1218.94629	-390.35028	849.09839	1652.26440	-125.00977	1476.73743	1764.07874	-122.68005	1302.81494	1811.27722	-67.43419	1170.52637	1821.30872	28.44910	1093.59778	1791.59180	141.85635	1028.87830	1826.32471	112.97719	994.60461	1827.43372	182.50243	978.86377	1372.33496	0.07469	969.65509	1631.01831	-30.82906	947.60309	1426.65247	-218.79994	1001.14594	1536.44897	-234.40677	1002.10089	1302.36560	29.25051	671.79907	1333.12927	61.51263	473.41849	1332.15002	62.10116	277.70056	1359.59399	133.15572	68.01082	1412.26636	108.26632	35.71715	1346.69482	290.45502	62.05771	1687.23206	-194.74840	663.02380	1658.45667	-259.28433	462.78522	1661.72192	-384.46136	319.78488	1631.77637	-488.66528	154.52310	1574.58411	-538.52942	121.00841	1646.32068	-376.64709	35.07418	1486.27026	-122.37392	1778.44836	-3357.56689	2845.98950	1034.36243 
